<svg width="16" height="16" viewBox="0 0 16 16" fill="none" xmlns="http://www.w3.org/2000/svg">
<path d="M16 7.85C16.0002 7.78314 15.9827 7.71742 15.9493 7.65948C15.916 7.60154 15.8679 7.55343 15.81 7.52L15 7.06V1C15 0.734783 14.8946 0.48043 14.7071 0.292893C14.5196 0.105357 14.2652 0 14 0H4C3.73478 0 3.48043 0.105357 3.29289 0.292893C3.10536 0.48043 3 0.734783 3 1V3H1C0.734784 3 0.48043 3.10536 0.292893 3.29289C0.105357 3.48043 0 3.73478 0 4V12C0 12.2652 0.105357 12.5196 0.292893 12.7071C0.48043 12.8946 0.734784 13 1 13H2V15.11C2 15.2269 2.02302 15.3426 2.06775 15.4506C2.11247 15.5586 2.17803 15.6567 2.26067 15.7393C2.34332 15.822 2.44143 15.8875 2.54941 15.9323C2.65739 15.977 2.77312 16 2.89 16H15.11C15.2269 16 15.3426 15.977 15.4506 15.9323C15.5586 15.8875 15.6567 15.822 15.7393 15.7393C15.822 15.6567 15.8875 15.5586 15.9323 15.4506C15.977 15.3426 16 15.2269 16 15.11V7.85ZM9 2H14V6H10V4C10 3.73478 9.89464 3.48043 9.70711 3.29289C9.51957 3.10536 9.26522 3 9 3V2ZM14 7V8L10 10.3V7H14ZM4 2H8V3H4V2ZM2 9.8C1.71655 9.2643 1.57214 8.66601 1.58 8.06C1.56819 7.4303 1.70524 6.80672 1.98 6.24C2.24848 5.70528 2.67422 5.26558 3.2 4.98C3.77953 4.66657 4.43141 4.51136 5.09 4.53C5.70434 4.51542 6.31159 4.66379 6.85 4.96C7.35486 5.24039 7.76806 5.66054 8.04 6.17C8.31925 6.71405 8.46007 7.31855 8.45 7.93C8.45718 8.56468 8.31321 9.19196 8.03 9.76C7.76138 10.3048 7.33668 10.7574 6.81 11.06C6.2539 11.3686 5.62582 11.5239 4.99 11.51C4.36088 11.5208 3.74003 11.3656 3.19 11.06C2.67431 10.7678 2.25674 10.3293 1.99 9.8H2ZM3 15V13H9C9.1587 12.9954 9.31403 12.9531 9.45315 12.8766C9.59226 12.8001 9.71116 12.6916 9.8 12.56L14.17 15H3ZM15 14.32L10 11.53V11.46L15 8.62V14.33V14.32ZM4.16 9.66C4.40811 9.82566 4.70182 9.90958 5 9.9C5.31912 9.916 5.63485 9.8283 5.9 9.65C6.13566 9.49154 6.31714 9.2647 6.42 9C6.54647 8.68212 6.60769 8.34203 6.6 8C6.5955 7.67944 6.53806 7.36183 6.43 7.06C6.33555 6.78819 6.16129 6.5512 5.93 6.38C5.67668 6.1782 5.36382 6.06571 5.04 6.06C4.73562 6.05085 4.43566 6.13456 4.18 6.3C3.93264 6.46203 3.74073 6.69581 3.63 6.97C3.49063 7.28458 3.42234 7.62602 3.43 7.97C3.42233 8.31298 3.48707 8.65373 3.62 8.97C3.72889 9.24772 3.91658 9.48756 4.16 9.66Z" fill="white"/>
</svg>
